<svg xmlns="http://www.w3.org/2000/svg" width="32" height="32" enable-background="new 0 0 32 32" viewBox="0 0 32 32"><polygon points="24.025 19.444 28.714 14.666 29.414 13.965 24 8.554 22.586 9.968 25.585 12.966 15 12.966 15 14.966 25.618 14.966 22.598 18.044"/><path d="M28,19c-0.553,0-1,0.447-1,1v3H12.992L12.97,7.969c0-0.378-0.215-0.725-0.554-0.894L8.25,5H27v3c0,0.552,0.447,1,1,1
		s1-0.448,1-1V4c0-0.552-0.447-1-1-1H4c-0.005,0-0.01,0.003-0.016,0.003C3.868,3.005,3.754,3.03,3.645,3.072
		c-0.026,0.01-0.05,0.022-0.075,0.034C3.538,3.121,3.504,3.131,3.473,3.15c-0.057,0.035-0.106,0.08-0.154,0.125
		c-0.01,0.01-0.022,0.017-0.032,0.027C3.208,3.382,3.147,3.477,3.1,3.579c-0.012,0.024-0.021,0.049-0.03,0.075
		C3.028,3.764,3,3.879,3,4v24c0,0.553,0.448,1,1,1h8c0.006,0,0.013-0.001,0.02,0c0.552,0,1-0.447,1-1
		c0-0.069-0.007-0.137-0.021-0.202L12.995,25H28c0.553,0,1-0.447,1-1v-4C29,19.447,28.553,19,28,19z M5,27V5.615l5.971,2.975
		l0.022,15.396c0,0.005-0.003,0.01-0.003,0.015c0,0.006,0.003,0.01,0.003,0.015L10.997,27H5z"/></svg>