<svg id="SvgjsSvg1012" width="288" height="288" xmlns="http://www.w3.org/2000/svg" version="1.1" xmlns:xlink="http://www.w3.org/1999/xlink" xmlns:svgjs="http://svgjs.com/svgjs"><defs id="SvgjsDefs1013"></defs><g id="SvgjsG1014" transform="matrix(0.916700005531311,0,0,0.916700005531311,12.932324409484863,11.620348930358887)"><svg xmlns="http://www.w3.org/2000/svg" data-name="Layer 1" viewBox="0 0 64 64" width="288" height="288"><path fill="none" stroke="#b5b5b9" stroke-linecap="round" stroke-linejoin="round" stroke-width="2" d="M35,56H29a2,2,0,0,1-2-2h0a2,2,0,0,1,2-2h6a2,2,0,0,1,2,2h0A2,2,0,0,1,35,56Z" class="colorStroke000 svgStroke"></path><rect width="36" height="5" x="14" y="42" fill="none" stroke="#b5b5b9" stroke-linecap="round" stroke-linejoin="round" stroke-width="2" class="colorStroke000 svgStroke"></rect><rect width="36" height="5" x="14" y="33" fill="none" stroke="#b5b5b9" stroke-linecap="round" stroke-linejoin="round" stroke-width="2" class="colorStroke000 svgStroke"></rect><path fill="none" stroke="#b5b5b9" stroke-linecap="round" stroke-linejoin="round" stroke-width="2" d="M26.39,28V25.8A3.81,3.81,0,0,1,30.2,22h2.39a3.8,3.8,0,0,1,3.8,3.8V28" class="colorStroke000 svgStroke"></path><circle cx="31.39" cy="15" r="3" fill="none" stroke="#b5b5b9" stroke-linecap="round" stroke-linejoin="round" stroke-width="2" class="colorStroke000 svgStroke"></circle><line x1="23.39" x2="39.39" y1="28" y2="28" fill="none" stroke="#b5b5b9" stroke-linecap="round" stroke-linejoin="round" stroke-width="2" class="colorStroke000 svgStroke"></line><path fill="none" stroke="#b5b5b9" stroke-linecap="round" stroke-linejoin="round" stroke-width="2" d="M56,16V56a4,4,0,0,1-4,4H12a4,4,0,0,1-4-4V11a4,4,0,0,1,4-4H47" class="colorStroke000 svgStroke"></path><line x1="51" x2="61" y1="7" y2="7" fill="none" stroke="#b5b5b9" stroke-linecap="round" stroke-linejoin="round" stroke-width="2" class="colorStroke000 svgStroke"></line><line x1="56" x2="56" y1="2" y2="12" fill="none" stroke="#b5b5b9" stroke-linecap="round" stroke-linejoin="round" stroke-width="2" class="colorStroke000 svgStroke"></line></svg></g></svg>